<?xml version="1.0" encoding="UTF-8"?>
<svg id="Layer_1" data-name="Layer 1" xmlns="http://www.w3.org/2000/svg" viewBox="0 0 154.9 146.86">
  <defs>
    <style>
      .cls-1, .cls-2 {
        fill: #fff;
      }

      .cls-2 {
        stroke: #000;
        stroke-miterlimit: 10;
        stroke-width: 2px;
      }
    </style>
  </defs>
  <g>
    <path class="cls-1" d="M77.45,27.18c-7.22,0-13.09-5.87-13.09-13.09S70.23,1,77.45,1s13.09,5.87,13.09,13.09-5.87,13.09-13.09,13.09Z"/>
    <path d="M77.45,2c6.67,0,12.09,5.42,12.09,12.09s-5.42,12.09-12.09,12.09-12.09-5.42-12.09-12.09,5.42-12.09,12.09-12.09M77.45,0c-7.78,0-14.09,6.31-14.09,14.09s6.31,14.09,14.09,14.09,14.09-6.31,14.09-14.09S85.24,0,77.45,0h0Z"/>
  </g>
  <g>
    <path class="cls-1" d="M77.45,87.39c-7.22,0-13.09-5.87-13.09-13.09s5.87-13.09,13.09-13.09,13.09,5.87,13.09,13.09-5.87,13.09-13.09,13.09Z"/>
    <path d="M77.45,62.21c6.67,0,12.09,5.42,12.09,12.09s-5.42,12.09-12.09,12.09-12.09-5.42-12.09-12.09,5.42-12.09,12.09-12.09M77.45,60.21c-7.78,0-14.09,6.31-14.09,14.09s6.31,14.09,14.09,14.09,14.09-6.31,14.09-14.09-6.31-14.09-14.09-14.09h0Z"/>
  </g>
  <g>
    <path class="cls-1" d="M14.09,85.21c-7.22,0-13.09-5.87-13.09-13.09s5.87-13.09,13.09-13.09,13.09,5.87,13.09,13.09-5.87,13.09-13.09,13.09Z"/>
    <path d="M14.09,60.03c6.67,0,12.09,5.42,12.09,12.09s-5.42,12.09-12.09,12.09-12.09-5.42-12.09-12.09,5.42-12.09,12.09-12.09M14.09,58.03c-7.78,0-14.09,6.31-14.09,14.09s6.31,14.09,14.09,14.09,14.09-6.31,14.09-14.09-6.31-14.09-14.09-14.09h0Z"/>
  </g>
  <g>
    <path class="cls-1" d="M77.45,145.86c-7.22,0-13.09-5.87-13.09-13.09s5.87-13.09,13.09-13.09,13.09,5.87,13.09,13.09-5.87,13.09-13.09,13.09Z"/>
    <path d="M77.45,120.68c6.67,0,12.09,5.42,12.09,12.09s-5.42,12.09-12.09,12.09-12.09-5.42-12.09-12.09,5.42-12.09,12.09-12.09M77.45,118.68c-7.78,0-14.09,6.31-14.09,14.09s6.31,14.09,14.09,14.09,14.09-6.31,14.09-14.09-6.31-14.09-14.09-14.09h0Z"/>
  </g>
  <g>
    <path class="cls-1" d="M14.09,145.86c-7.22,0-13.09-5.87-13.09-13.09s5.87-13.09,13.09-13.09,13.09,5.87,13.09,13.09-5.87,13.09-13.09,13.09Z"/>
    <path d="M14.09,120.68c6.67,0,12.09,5.42,12.09,12.09s-5.42,12.09-12.09,12.09-12.09-5.42-12.09-12.09,5.42-12.09,12.09-12.09M14.09,118.68c-7.78,0-14.09,6.31-14.09,14.09s6.31,14.09,14.09,14.09,14.09-6.31,14.09-14.09-6.31-14.09-14.09-14.09h0Z"/>
  </g>
  <g>
    <path class="cls-1" d="M140.81,145.86c-7.22,0-13.09-5.87-13.09-13.09s5.87-13.09,13.09-13.09,13.09,5.87,13.09,13.09-5.87,13.09-13.09,13.09Z"/>
    <path d="M140.81,120.68c6.67,0,12.09,5.42,12.09,12.09s-5.42,12.09-12.09,12.09-12.09-5.42-12.09-12.09,5.42-12.09,12.09-12.09M140.81,118.68c-7.78,0-14.09,6.31-14.09,14.09s6.31,14.09,14.09,14.09,14.09-6.31,14.09-14.09-6.31-14.09-14.09-14.09h0Z"/>
  </g>
  <g>
    <path class="cls-1" d="M140.81,85.21c-7.22,0-13.09-5.87-13.09-13.09s5.87-13.09,13.09-13.09,13.09,5.87,13.09,13.09-5.87,13.09-13.09,13.09Z"/>
    <path d="M140.81,60.03c6.67,0,12.09,5.42,12.09,12.09s-5.42,12.09-12.09,12.09-12.09-5.42-12.09-12.09,5.42-12.09,12.09-12.09M140.81,58.03c-7.78,0-14.09,6.31-14.09,14.09s6.31,14.09,14.09,14.09,14.09-6.31,14.09-14.09-6.31-14.09-14.09-14.09h0Z"/>
  </g>
  <line class="cls-2" x1="77.45" y1="30.01" x2="77.45" y2="55.51"/>
  <line class="cls-2" x1="24.3" y1="60.17" x2="62.39" y2="24.25"/>
  <line class="cls-2" x1="129.63" y1="60.17" x2="91.54" y2="24.25"/>
  <line class="cls-2" x1="24.3" y1="121.17" x2="62.39" y2="85.25"/>
  <line class="cls-2" x1="130.6" y1="121.17" x2="92.52" y2="85.25"/>
  <line class="cls-2" x1="14.09" y1="89.61" x2="14.09" y2="115.11"/>
  <line class="cls-2" x1="77.45" y1="89.61" x2="77.45" y2="115.11"/>
  <line class="cls-2" x1="140.81" y1="89.4" x2="140.81" y2="114.9"/>
  <line class="cls-2" x1="96.95" y1="132.77" x2="122.45" y2="132.77"/>
  <line class="cls-2" x1="33.37" y1="132.77" x2="58.87" y2="132.77"/>
</svg>